<svg xmlns="http://www.w3.org/2000/svg" xmlns:svg="http://www.w3.org/2000/svg" id="svg112" width="100%" height="100%" preserveAspectRatio="xMinYMin meet" version="1.1" viewBox="0 0 1000 1100"><metadata id="metadata116"/><defs id="defs66"><clipPath id="EGXEKOJWuGVn"><path id="svg_1" fill="none" d="m0,0l1673,0l0,1285l-1673,0l0,-1285z"/></clipPath></defs><g id="g110"><title id="title68">Layer 1</title><path style="fill:gold;fill-opacity:.3" id="svg_5" d="m 460.74242,186.92776 c 0,75.84645 -61.4857,137.33215 -137.33215,137.33215 -75.84645,0 -137.33215,-61.4857 -137.33215,-137.33215 0,-75.84645 61.4857,-137.332153 137.33215,-137.332153 75.84645,0 137.33215,61.485703 137.33215,137.332153 z"/><path style="fill:none;stroke:#caab06;stroke-width:2.5;stroke-linecap:round;stroke-linejoin:round;stroke-miterlimit:10;stroke-opacity:.69803999" id="svg_6" stroke-miterlimit="10" d="m 460.74242,186.92776 c 0,75.84645 -61.4857,137.33215 -137.33215,137.33215 -75.84645,0 -137.33215,-61.4857 -137.33215,-137.33215 0,-75.84645 61.4857,-137.332153 137.33215,-137.332153 75.84645,0 137.33215,61.485703 137.33215,137.332153 z"/><text style="font-style:normal;font-weight:400;font-size:20px;font-family:geogebra-sans-serif,sans-serif;text-anchor:start;fill:gold" id="svg_7" x="229.622" y="37.812" font-size="20" font-style="normal" font-weight="normal">Destination Area</text><text style="font-style:normal;font-weight:400;font-size:20px;font-family:geogebra-sans-serif,sans-serif;text-anchor:start;fill:none;stroke:#fff;stroke-width:3;stroke-linejoin:bevel;stroke-miterlimit:10" id="svg_8" x="229.622" y="37.812" stroke-miterlimit="10" font-size="20" font-style="normal" font-weight="normal">Destination Area</text><text style="font-style:normal;font-weight:400;font-size:20px;font-family:geogebra-sans-serif,sans-serif;text-anchor:start;fill:#978006;stroke:none;stroke-opacity:1" id="svg_9" x="229.622" y="37.812" font-size="20" font-style="normal" font-weight="normal">Destination Area</text><path style="fill:none;stroke:#000;stroke-width:.5;stroke-linejoin:round;stroke-miterlimit:10;stroke-dasharray:8.5,8;stroke-opacity:.69803999" id="svg_10" stroke-miterlimit="10" d="m 529.40849,873.5885 c 0,113.7697 -92.22855,205.9982 -205.99822,205.9982 -113.76968,0 -205.99822,-92.2285 -205.99822,-205.9982 0,-113.76967 92.22854,-205.99822 205.99822,-205.99822 113.76967,0 205.99822,92.22855 205.99822,205.99822 z"/><path style="fill:none;stroke:#000;stroke-width:.5;stroke-linejoin:round;stroke-miterlimit:10;stroke-dasharray:8.5,8;stroke-opacity:.69803999" id="svg_11" stroke-miterlimit="10" d="m 486.82048,688.91189 c 0,113.76968 -92.22854,205.99822 -205.99822,205.99822 -113.76968,0 -205.99822,-92.22854 -205.99822,-205.99822 0,-113.76968 92.22854,-205.99822 205.99822,-205.99822 113.76968,0 205.99822,92.22854 205.99822,205.99822 z"/><path style="fill:none;stroke:#000;stroke-width:.5;stroke-linejoin:round;stroke-miterlimit:10;stroke-dasharray:8.5,8;stroke-opacity:.69803999" id="svg_12" stroke-miterlimit="10" d="m 428.82048,511.91189 c 0,113.76968 -92.22854,205.99822 -205.99822,205.99822 -113.76968,0 -205.99822,-92.22854 -205.99822,-205.99822 0,-113.76968 92.22854,-205.99822 205.99822,-205.99822 113.76968,0 205.99822,92.22854 205.99822,205.99822 z"/><path style="fill:none;stroke:#000;stroke-width:.5;stroke-linejoin:round;stroke-miterlimit:10;stroke-dasharray:8.5,8;stroke-opacity:.69803999" id="svg_13" stroke-miterlimit="10" d="m 696.92801,775.58689 c 0,113.76968 -92.2286,205.99821 -205.99825,205.99821 -113.76968,0 -205.99822,-92.22853 -205.99822,-205.99821 0,-113.76968 92.22854,-205.99822 205.99822,-205.99822 113.76965,0 205.99825,92.22854 205.99825,205.99822 z"/><path style="fill:none;stroke:#000;stroke-width:.5;stroke-linejoin:round;stroke-miterlimit:10;stroke-dasharray:8.5,8;stroke-opacity:.69803999" id="svg_14" stroke-miterlimit="10" d="m 846.82051,657.91189 c 0,113.76968 -92.2286,205.99822 -205.9982,205.99822 -113.76973,0 -205.99827,-92.22854 -205.99827,-205.99822 0,-113.76968 92.22854,-205.99822 205.99827,-205.99822 113.7696,0 205.9982,92.22854 205.9982,205.99822 z"/><path style="fill:none;stroke:#000;stroke-width:.5;stroke-linejoin:round;stroke-miterlimit:10;stroke-dasharray:8.5,8;stroke-opacity:.69803999" id="svg_15" stroke-miterlimit="10" d="m 988.82051,527.91189 c 0,113.76968 -92.2286,205.99822 -205.9982,205.99822 -113.7697,0 -205.99827,-92.22854 -205.99827,-205.99822 0,-113.76968 92.22857,-205.99822 205.99827,-205.99822 113.7696,0 205.9982,92.22854 205.9982,205.99822 z"/><path style="fill:none;stroke:#000;stroke-width:.5;stroke-linejoin:round;stroke-miterlimit:10;stroke-dasharray:8.5,8;stroke-opacity:.69803999" id="svg_16" stroke-miterlimit="10" d="m 941.82051,347.91189 c 0,113.76968 -92.2286,205.99822 -205.9982,205.99822 -113.7697,0 -205.99827,-92.22854 -205.99827,-205.99822 0,-113.76968 92.22857,-205.99822 205.99827,-205.99822 113.7696,0 205.9982,92.22854 205.9982,205.99822 z"/><path style="fill:none;stroke:#000;stroke-width:.5;stroke-linejoin:round;stroke-miterlimit:10;stroke-dasharray:8.5,8;stroke-opacity:.69803999" id="svg_17" stroke-miterlimit="10" d="m 783.82051,235.91189 c 0,113.76968 -92.2286,205.99822 -205.99825,205.99822 -113.76968,0 -205.99822,-92.22854 -205.99822,-205.99822 0,-113.76968 92.22854,-205.998223 205.99822,-205.998223 113.76965,0 205.99825,92.228543 205.99825,205.998223 z"/><path style="fill:#1565c0" id="svg_18" d="m 332.41027,873.5885 c 0,4.97057 -4.02944,9 -9,9 -4.97056,0 -9,-4.02943 -9,-9 0,-4.97056 4.02944,-9 9,-9 4.97056,0 9,4.02944 9,9 z"/><path style="fill:none;stroke:#000;stroke-linecap:round;stroke-linejoin:round;stroke-miterlimit:10" id="svg_19" stroke-miterlimit="10" d="m 332.41027,873.5885 c 0,4.97057 -4.02944,9 -9,9 -4.97056,0 -9,-4.02943 -9,-9 0,-4.97056 4.02944,-9 9,-9 4.97056,0 9,4.02944 9,9 z"/><text style="font-style:normal;font-weight:400;font-size:20px;font-family:geogebra-sans-serif,sans-serif;text-anchor:start;fill:#1565c0" id="svg_20" x="293.622" y="854.812" font-size="20" font-style="normal" font-weight="normal">Sender</text><text style="font-style:normal;font-weight:400;font-size:20px;font-family:geogebra-sans-serif,sans-serif;text-anchor:start;fill:none;stroke:#fff;stroke-width:3;stroke-linejoin:bevel;stroke-miterlimit:10" id="svg_21" x="293.622" y="854.812" stroke-miterlimit="10" font-size="20" font-style="normal" font-weight="normal">Sender</text><text style="font-style:normal;font-weight:400;font-size:20px;font-family:geogebra-sans-serif,sans-serif;text-anchor:start;fill:#1565c0;stroke:none;stroke-opacity:1" id="svg_22" x="293.622" y="854.812" font-size="20" font-style="normal" font-weight="normal">Sender</text><path style="fill:gold" id="svg_23" d="m 649.82231,657.91189 c 0,4.97056 -4.0295,9 -9,9 -4.9706,0 -9,-4.02944 -9,-9 0,-4.97056 4.0294,-9 9,-9 4.9705,0 9,4.02944 9,9 z"/><path style="fill:none;stroke:#000;stroke-linecap:round;stroke-linejoin:round;stroke-miterlimit:10" id="svg_24" stroke-miterlimit="10" d="m 649.82231,657.91189 c 0,4.97056 -4.0295,9 -9,9 -4.9706,0 -9,-4.02944 -9,-9 0,-4.97056 4.0294,-9 9,-9 4.9705,0 9,4.02944 9,9 z"/><path style="fill:gold" id="svg_25" d="m 791.82231,527.91189 c 0,4.97056 -4.0295,9 -9,9 -4.9706,0 -9,-4.02944 -9,-9 0,-4.97056 4.0294,-9 9,-9 4.9705,0 9,4.02944 9,9 z"/><path style="fill:none;stroke:#000;stroke-linecap:round;stroke-linejoin:round;stroke-miterlimit:10" id="svg_26" stroke-miterlimit="10" d="m 791.82231,527.91189 c 0,4.97056 -4.0295,9 -9,9 -4.9706,0 -9,-4.02944 -9,-9 0,-4.97056 4.0294,-9 9,-9 4.9705,0 9,4.02944 9,9 z"/><path style="fill:#063" id="svg_27" d="m 289.82226,688.91189 c 0,4.97056 -4.02944,9 -9,9 -4.97056,0 -9,-4.02944 -9,-9 0,-4.97056 4.02944,-9 9,-9 4.97056,0 9,4.02944 9,9 z"/><path style="fill:none;stroke:#000;stroke-linecap:round;stroke-linejoin:round;stroke-miterlimit:10" id="svg_28" stroke-miterlimit="10" d="m 289.82226,688.91189 c 0,4.97056 -4.02944,9 -9,9 -4.97056,0 -9,-4.02944 -9,-9 0,-4.97056 4.02944,-9 9,-9 4.97056,0 9,4.02944 9,9 z"/><path style="fill:#930" id="svg_29" d="m 310.87082,296.76468 c 0,4.97056 -4.02944,9 -9,9 -4.97057,0 -9,-4.02944 -9,-9 0,-4.97056 4.02943,-9 9,-9 4.97056,0 9,4.02944 9,9 z"/><path style="fill:none;stroke:#000;stroke-linecap:round;stroke-linejoin:round;stroke-miterlimit:10" id="svg_30" stroke-miterlimit="10" d="m 310.87082,296.76468 c 0,4.97056 -4.02944,9 -9,9 -4.97057,0 -9,-4.02944 -9,-9 0,-4.97056 4.02943,-9 9,-9 4.97056,0 9,4.02944 9,9 z"/><path style="fill:#930" id="svg_31" d="m 415.68715,197.27798 c 0,4.97057 -4.02943,9 -9,9 -4.97056,0 -9,-4.02943 -9,-9 0,-4.97056 4.02944,-9 9,-9 4.97057,0 9,4.02944 9,9 z"/><path style="fill:none;stroke:#000;stroke-linecap:round;stroke-linejoin:round;stroke-miterlimit:10" id="svg_32" stroke-miterlimit="10" d="m 415.68715,197.27798 c 0,4.97057 -4.02943,9 -9,9 -4.97056,0 -9,-4.02943 -9,-9 0,-4.97056 4.02944,-9 9,-9 4.97057,0 9,4.02944 9,9 z"/><path style="fill:#930" id="svg_33" d="m 319.75356,156.41738 c 0,4.97056 -4.02944,9 -9,9 -4.97057,0 -9,-4.02944 -9,-9 0,-4.97056 4.02943,-9 9,-9 4.97056,0 9,4.02944 9,9 z"/><path style="fill:none;stroke:#000;stroke-linecap:round;stroke-linejoin:round;stroke-miterlimit:10" id="svg_34" stroke-miterlimit="10" d="m 319.75356,156.41738 c 0,4.97056 -4.02944,9 -9,9 -4.97057,0 -9,-4.02944 -9,-9 0,-4.97056 4.02943,-9 9,-9 4.97056,0 9,4.02944 9,9 z"/><path style="fill:#006400" id="svg_35" d="m 231.82226,511.91189 c 0,4.97056 -4.02944,9 -9,9 -4.97056,0 -9,-4.02944 -9,-9 0,-4.97056 4.02944,-9 9,-9 4.97056,0 9,4.02944 9,9 z"/><path style="fill:none;stroke:#000;stroke-linecap:round;stroke-linejoin:round;stroke-miterlimit:10" id="svg_36" stroke-miterlimit="10" d="m 231.82226,511.91189 c 0,4.97056 -4.02944,9 -9,9 -4.97056,0 -9,-4.02944 -9,-9 0,-4.97056 4.02944,-9 9,-9 4.97056,0 9,4.02944 9,9 z"/><path style="fill:gold" id="svg_37" d="m 499.92976,775.58689 c 0,4.97056 -4.02944,9 -9,9 -4.97056,0 -9,-4.02944 -9,-9 0,-4.97056 4.02944,-9 9,-9 4.97056,0 9,4.02944 9,9 z"/><path style="fill:none;stroke:#000;stroke-linecap:round;stroke-linejoin:round;stroke-miterlimit:10" id="svg_38" stroke-miterlimit="10" d="m 499.92976,775.58689 c 0,4.97056 -4.02944,9 -9,9 -4.97056,0 -9,-4.02944 -9,-9 0,-4.97056 4.02944,-9 9,-9 4.97056,0 9,4.02944 9,9 z"/><path style="fill:gold" id="svg_39" d="m 744.82231,347.91189 c 0,4.97056 -4.0295,9 -9,9 -4.9706,0 -9,-4.02944 -9,-9 0,-4.97056 4.0294,-9 9,-9 4.9705,0 9,4.02944 9,9 z"/><path style="fill:none;stroke:#000;stroke-linecap:round;stroke-linejoin:round;stroke-miterlimit:10" id="svg_40" stroke-miterlimit="10" d="m 744.82231,347.91189 c 0,4.97056 -4.0295,9 -9,9 -4.9706,0 -9,-4.02944 -9,-9 0,-4.97056 4.0294,-9 9,-9 4.9705,0 9,4.02944 9,9 z"/><path style="fill:gold" id="svg_41" d="m 586.82226,235.91189 c 0,4.97056 -4.02944,9 -9,9 -4.97056,0 -9,-4.02944 -9,-9 0,-4.97056 4.02944,-9 9,-9 4.97056,0 9,4.02944 9,9 z"/><path style="fill:none;stroke:#000;stroke-linecap:round;stroke-linejoin:round;stroke-miterlimit:10" id="svg_42" stroke-miterlimit="10" d="m 586.82226,235.91189 c 0,4.97056 -4.02944,9 -9,9 -4.97056,0 -9,-4.02944 -9,-9 0,-4.97056 4.02944,-9 9,-9 4.97056,0 9,4.02944 9,9 z"/></g></svg>